<?xml version="1.0" standalone="no"?>
<svg version="1.1" preserveAspectRatio="xMidYMid meet" viewBox="0 0 24 24" class="ng-element interactive" data-id="42736a7429ab6d6448210778594347dd" style="fill: rgb(32, 32, 32); width: 32px; height: 32px; filter: none;" xmlns="http://www.w3.org/2000/svg"><g><defs> </defs> <rect display="none" fill="#FFA400" width="24" height="24" style="fill: rgb(32, 32, 32);"/> <rect id="_x3C_Slice_x3E__126_" display="none" fill="none" width="24" height="24" style="fill: rgb(32, 32, 32);"/> <path fill-rule="evenodd" clip-rule="evenodd" d="M18,1c-3,0-4.509,1.296-6,3c-1.491-1.704-3-3-6-3S0,3,0,9c0,3,3,9,12,14 c9-5,12-11,12-14C24,3,21,1,18,1z M12,20.694C3.828,15.847,2,10.649,2,9c0-2.737,0.694-6,4-6c2.099,0,3.121,0.747,4.495,2.317L12,7 l1.505-1.683C14.879,3.747,15.902,3,18,3c3.306,0,4,3.263,4,6C22,10.649,20.172,15.847,12,20.694z" style="fill: rgb(32, 32, 32);"/> </g></svg>