<?xml version="1.0" standalone="no"?>
<svg version="1.1" preserveAspectRatio="xMidYMid meet" viewBox="0 -0.5039177277179228 49 49" class="ng-element" data-id="30adafbe5529b003ab4216b6e65825d3" style="fill: rgb(255, 143, 0); width: 55px; height: 55px; pointer-events: all; filter: none;" xmlns="http://www.w3.org/2000/svg"><g>
	<g>
		<path d="M46,27c-0.4,0-0.7,0.1-1,0.2v-6.7C45,9.2,35.8,0,24.5,0S4,9.2,4,20.5v6.7C3.7,27.1,3.4,27,3,27c-1.7,0-3,1.3-3,3v10    c0,1.7,1.3,3,3,3c0.4,0,0.7-0.1,1-0.2v0.7C4,46,6,48,8.5,48s4.5-2,4.5-4.5v-17C13,24,11,22,8.5,22c-0.9,0-1.8,0.3-2.5,0.8v-2.3    C6,10.3,14.3,2,24.5,2S43,10.3,43,20.5v2.3c-0.7-0.5-1.6-0.8-2.5-0.8C38,22,36,24,36,26.5v17c0,2.5,2,4.5,4.5,4.5s4.5-2,4.5-4.5    v-0.7c0.3,0.1,0.6,0.2,1,0.2c1.7,0,3-1.3,3-3V30C49,28.3,47.7,27,46,27z M3,41c-0.6,0-1-0.4-1-1V30c0-0.6,0.4-1,1-1    c0.6,0,1,0.4,1,1v10C4,40.6,3.6,41,3,41z M8.5,24c1.4,0,2.5,1.1,2.5,2.5v17c0,1.4-1.1,2.5-2.5,2.5C7.1,46,6,44.9,6,43.5v-17    C6,25.1,7.1,24,8.5,24z M43,43.5c0,1.4-1.1,2.5-2.5,2.5S38,44.9,38,43.5v-17c0-1.4,1.1-2.5,2.5-2.5s2.5,1.1,2.5,2.5V43.5z M47,40    c0,0.6-0.4,1-1,1s-1-0.4-1-1V30c0-0.6,0.4-1,1-1s1,0.4,1,1V40z" style="fill: rgb(255, 143, 0);"/>
	</g>
</g><g/></svg>