<?xml version="1.0" standalone="no"?>
<svg version="1.1" preserveAspectRatio="xMidYMid meet" viewBox="-0.5100000000000016 0 51 51" class="ng-element" data-id="6a6a6a05da9ffbeb4b6d9cd42bc31301" style="fill: rgb(255, 255, 255); width: 22px; height: 22px; filter: none;" xmlns="http://www.w3.org/2000/svg"><g>
	<g>
		<path class="st0" d="M19.7,7.7l-1.4-1.4l-8,8l1.4,1.4L19.7,7.7z M26.3,7.3l-15,15l1.4,1.4l15-15L26.3,7.3z M38,37l-2,2l12,12l2-2    L38,37z M35,6C27-2,14-2,6,6c-8,8-8,21,0,29c8,8,21,8,29,0C43,27,43,14,35,6z M33.6,33.6c-7.2,7.2-18.9,7.2-26.2,0    c-7.2-7.2-7.2-18.9,0-26.2c7.2-7.2,18.9-7.2,26.2,0C40.8,14.6,40.8,26.4,33.6,33.6z M25,18l1,2l5.7-6.3l-1.4-1.4L25,18z" style="fill: rgb(255, 255, 255);"/>
	</g>
</g><g/></svg>